<svg filter="url(#blurMe)" width="400" height="400" xmlns="http://www.w3.org/2000/svg">
 <!-- Created with Method Draw - http://github.com/duopixel/Method-Draw/ -->
 <defs>
    <filter id="blurMe" x="0" y="0">
      <feGaussianBlur in="SourceGraphic" stdDeviation="4" />
    </filter>
  </defs>

 <g>
  <title>background</title>
  <rect fill="transparent" id="canvas_background" height="402" width="402" y="-1" x="-1"/>
 </g>

 <g>
  <title>Layer 1</title>
  <path  stroke="#000000" id="svg_1" d="m97.237479,123.063792c32.46693,-42.010361 63.411973,-18.265374 100.444565,-19.483066c37.032592,-1.217691 41.598254,-17.047683 77.108958,-12.176916c35.510705,4.870766 45.149324,71.234961 8.116733,68.190732c-37.032592,-3.044229 -53.266057,-25.571525 -75.079776,-19.483067c-21.813718,6.088459 -17.755352,56.622662 17.248057,56.013816c35.003408,-0.608846 38.554479,-4.261921 54.787944,-6.697304c16.233465,-2.435384 26.37938,-11.568071 42.612845,-10.350379c16.233465,1.217691 27.901268,32.268828 -9.131324,42.619207c-37.032592,10.350379 -38.224224,-0.078214 -41.848216,9.534049c-3.623992,9.612263 16.483427,4.469405 18.51261,30.040929c2.029184,25.571525 -45.65662,40.183824 -46.163915,7.30615c-0.507296,-32.877674 -17.248057,-30.442291 -21.813719,-17.047683c-4.565662,13.394608 5.072958,38.357287 -17.248056,36.530749c-22.321015,-1.826537 3.55107,-32.877674 -10.145916,-43.836899c-13.696986,-10.959224 -91.31324,60.884582 -91.820536,36.53075c-0.507296,-24.353833 55.29524,-56.622662 41.598254,-80.367649c-13.696986,-23.744986 -21.813719,-16.438837 -31.452339,-1.217691c-9.638619,15.221145 -27.901267,17.656529 -36.018,3.653075c-8.116732,-14.003454 -12.175099,-37.748441 20.291831,-79.758803z"
  	fill-opacity="0" stroke-width="2" fill="#ff0f13"/>
 </g>
</svg>