<svg width="400" height="400" xmlns="http://www.w3.org/2000/svg">
 <!-- Created with Method Draw - http://github.com/duopixel/Method-Draw/ -->
 <g>
  <title>background</title>
  <rect fill="#7f7f7f" id="canvas_background" height="402" width="402" y="-1" x="-1"/>
 </g>
 <g>
  <title>Layer 1</title>
  <path stroke="#494949" id="svg_1" d="m97.237479,123.063792c32.46693,-42.010362 63.411972,-18.265375 100.444564,-19.483066c37.032592,-1.217692 41.598254,-17.047683 77.108958,-12.176916c35.510705,4.870767 45.149324,71.234961 8.116732,68.190732c-37.032592,-3.044229 -53.266057,-25.571524 -75.079775,-19.483066c-21.813719,6.088458 -17.755352,56.622661 17.248056,56.013815c35.003409,-0.608846 38.554479,-4.261921 54.787944,-6.697304c16.233465,-2.435383 26.379381,-11.568071 42.612845,-10.350379c16.233465,1.217692 27.901268,32.268828 -9.131324,42.619207c-37.032592,10.350379 -48.700395,1.826537 -57.324423,16.438837c-8.624028,14.6123 31.959634,-2.435383 33.988817,23.136141c2.029183,25.571524 -45.65662,40.183824 -46.163916,7.30615c-0.507296,-32.877674 -17.248056,-30.442291 -21.813719,-17.047683c-4.565662,13.394608 5.072958,38.357287 -17.248056,36.530749c-22.321014,-1.826537 3.55107,-32.877674 -10.145916,-43.836899c-13.696986,-10.959225 -91.31324,60.884582 -91.820536,36.530749c-0.507296,-24.353833 55.29524,-56.622661 41.598254,-80.367648c-13.696986,-23.744987 -21.813719,-16.438837 -31.452338,-1.217692c-9.63862,15.221145 -27.901268,17.656529 -36.018,3.653075c-8.116732,-14.003454 -12.175099,-37.748441 20.291831,-79.758802z" fill-opacity="0" stroke-width="4" fill="#ff0f13"/>
 </g>
</svg>